%TF.GenerationSoftware,KiCad,Pcbnew,(6.0.11)*%
%TF.CreationDate,2024-12-17T11:08:08+01:00*%
%TF.ProjectId,Solfacon,536f6c66-6163-46f6-9e2e-6b696361645f,rev?*%
%TF.SameCoordinates,Original*%
%TF.FileFunction,Copper,L1,Top*%
%TF.FilePolarity,Positive*%
%FSLAX46Y46*%
G04 Gerber Fmt 4.6, Leading zero omitted, Abs format (unit mm)*
G04 Created by KiCad (PCBNEW (6.0.11)) date 2024-12-17 11:08:08*
%MOMM*%
%LPD*%
G01*
G04 APERTURE LIST*
%ADD10C,0.250000*%
%TA.AperFunction,NonConductor*%
%ADD11C,0.250000*%
%TD*%
%TA.AperFunction,ComponentPad*%
%ADD12C,1.600000*%
%TD*%
%TA.AperFunction,ComponentPad*%
%ADD13O,1.600000X1.600000*%
%TD*%
%TA.AperFunction,ComponentPad*%
%ADD14C,2.200000*%
%TD*%
%TA.AperFunction,ComponentPad*%
%ADD15O,2.200000X2.200000*%
%TD*%
%TA.AperFunction,ComponentPad*%
%ADD16C,2.000000*%
%TD*%
%TA.AperFunction,ComponentPad*%
%ADD17O,2.000000X2.000000*%
%TD*%
%TA.AperFunction,ComponentPad*%
%ADD18O,1.800000X1.800000*%
%TD*%
%TA.AperFunction,ComponentPad*%
%ADD19C,1.717500*%
%TD*%
%TA.AperFunction,ComponentPad*%
%ADD20O,1.717500X1.800000*%
%TD*%
%TA.AperFunction,ComponentPad*%
%ADD21O,1.700000X1.700000*%
%TD*%
%TA.AperFunction,ComponentPad*%
%ADD22C,1.500000*%
%TD*%
%TA.AperFunction,ComponentPad*%
%ADD23C,1.700000*%
%TD*%
%TA.AperFunction,ComponentPad*%
%ADD24C,2.400000*%
%TD*%
%TA.AperFunction,ComponentPad*%
%ADD25O,2.400000X2.400000*%
%TD*%
%TA.AperFunction,ComponentPad*%
%ADD26O,1.500000X1.500000*%
%TD*%
%TA.AperFunction,ComponentPad*%
%ADD27O,2.100000X2.100000*%
%TD*%
%TA.AperFunction,ComponentPad*%
%ADD28C,2.100000*%
%TD*%
%TA.AperFunction,ComponentPad*%
%ADD29C,3.200000*%
%TD*%
%TA.AperFunction,ComponentPad*%
%ADD30O,3.200000X3.200000*%
%TD*%
%TA.AperFunction,ComponentPad*%
%ADD31C,1.800000*%
%TD*%
%TA.AperFunction,Conductor*%
%ADD32C,0.600000*%
%TD*%
%TA.AperFunction,Conductor*%
%ADD33C,1.500000*%
%TD*%
%TA.AperFunction,Conductor*%
%ADD34C,0.500000*%
%TD*%
%TA.AperFunction,Conductor*%
%ADD35C,0.800000*%
%TD*%
%TA.AperFunction,Conductor*%
%ADD36C,1.000000*%
%TD*%
%TA.AperFunction,Conductor*%
%ADD37C,1.200000*%
%TD*%
G04 APERTURE END LIST*
D10*
D11*
X48933333Y-86174961D02*
X49133333Y-86241628D01*
X49466666Y-86241628D01*
X49600000Y-86174961D01*
X49666666Y-86108295D01*
X49733333Y-85974961D01*
X49733333Y-85841628D01*
X49666666Y-85708295D01*
X49600000Y-85641628D01*
X49466666Y-85574961D01*
X49200000Y-85508295D01*
X49066666Y-85441628D01*
X49000000Y-85374961D01*
X48933333Y-85241628D01*
X48933333Y-85108295D01*
X49000000Y-84974961D01*
X49066666Y-84908295D01*
X49200000Y-84841628D01*
X49533333Y-84841628D01*
X49733333Y-84908295D01*
X50600000Y-84841628D02*
X50866666Y-84841628D01*
X51000000Y-84908295D01*
X51133333Y-85041628D01*
X51200000Y-85308295D01*
X51200000Y-85774961D01*
X51133333Y-86041628D01*
X51000000Y-86174961D01*
X50866666Y-86241628D01*
X50600000Y-86241628D01*
X50466666Y-86174961D01*
X50333333Y-86041628D01*
X50266666Y-85774961D01*
X50266666Y-85308295D01*
X50333333Y-85041628D01*
X50466666Y-84908295D01*
X50600000Y-84841628D01*
X52466666Y-86241628D02*
X51800000Y-86241628D01*
X51800000Y-84841628D01*
X53400000Y-85508295D02*
X52933333Y-85508295D01*
X52933333Y-86241628D02*
X52933333Y-84841628D01*
X53600000Y-84841628D01*
X54066666Y-85841628D02*
X54733333Y-85841628D01*
X53933333Y-86241628D02*
X54400000Y-84841628D01*
X54866666Y-86241628D01*
X56133333Y-86108295D02*
X56066666Y-86174961D01*
X55866666Y-86241628D01*
X55733333Y-86241628D01*
X55533333Y-86174961D01*
X55400000Y-86041628D01*
X55333333Y-85908295D01*
X55266666Y-85641628D01*
X55266666Y-85441628D01*
X55333333Y-85174961D01*
X55400000Y-85041628D01*
X55533333Y-84908295D01*
X55733333Y-84841628D01*
X55866666Y-84841628D01*
X56066666Y-84908295D01*
X56133333Y-84974961D01*
X57000000Y-84841628D02*
X57266666Y-84841628D01*
X57400000Y-84908295D01*
X57533333Y-85041628D01*
X57600000Y-85308295D01*
X57600000Y-85774961D01*
X57533333Y-86041628D01*
X57400000Y-86174961D01*
X57266666Y-86241628D01*
X57000000Y-86241628D01*
X56866666Y-86174961D01*
X56733333Y-86041628D01*
X56666666Y-85774961D01*
X56666666Y-85308295D01*
X56733333Y-85041628D01*
X56866666Y-84908295D01*
X57000000Y-84841628D01*
X58200000Y-86241628D02*
X58200000Y-84841628D01*
X59000000Y-86241628D01*
X59000000Y-84841628D01*
X53000000Y-87562295D02*
X53333333Y-88495628D01*
X53666666Y-87562295D01*
X54933333Y-88495628D02*
X54133333Y-88495628D01*
X54533333Y-88495628D02*
X54533333Y-87095628D01*
X54400000Y-87295628D01*
X54266666Y-87428961D01*
X54133333Y-87495628D01*
D12*
%TO.P,C12,1*%
%TO.N,Net-(C12-Pad1)*%
X65370112Y-46500000D03*
D13*
%TO.P,C12,2*%
%TO.N,GND*%
X65370112Y-44000000D03*
%TD*%
D12*
%TO.P,R3,1*%
%TO.N,Net-(C5-Pad1)*%
X61629686Y-31480340D03*
D13*
%TO.P,R3,2*%
%TO.N,Net-(C7-Pad1)*%
X61629686Y-39100340D03*
%TD*%
D14*
%TO.P,D5,1,K*%
%TO.N,Net-(C5-Pad1)*%
X70350204Y-78330131D03*
D15*
%TO.P,D5,2,A*%
%TO.N,Net-(D5-Pad2)*%
X70350204Y-82140131D03*
%TD*%
D12*
%TO.P,C11,1*%
%TO.N,Net-(C11-Pad1)*%
X69106870Y-46500000D03*
D13*
%TO.P,C11,2*%
%TO.N,GND*%
X69106870Y-44000000D03*
%TD*%
D12*
%TO.P,C4,1*%
%TO.N,Net-(C4-Pad1)*%
X35582982Y-50280987D03*
D13*
%TO.P,C4,2*%
%TO.N,GND*%
X35582982Y-52780987D03*
%TD*%
D16*
%TO.P,LDO1,1,IN*%
%TO.N,Net-(C1-Pad1)*%
X41376883Y-50093309D03*
D17*
%TO.P,LDO1,2,GND*%
%TO.N,GND*%
X41376883Y-47553309D03*
D16*
%TO.P,LDO1,3,OUT*%
%TO.N,Net-(C3-Pad1)*%
X41376883Y-45013309D03*
%TD*%
D18*
%TO.P,,*%
%TO.N,GND*%
X57738286Y-72140131D03*
%TD*%
D19*
%TO.P,Q1,1,G*%
%TO.N,Net-(C4-Pad1)*%
X38833075Y-40120000D03*
D20*
%TO.P,Q1,2,D*%
%TO.N,Net-(C5-Pad1)*%
X41123075Y-40120000D03*
%TO.P,Q1,3,S*%
%TO.N,Net-(D2-Pad1)*%
X43413075Y-40120000D03*
%TD*%
D12*
%TO.P,,*%
%TO.N,Net-(C7-Pad2)*%
X43738286Y-78140131D03*
%TD*%
%TO.P,C5,1*%
%TO.N,Net-(C5-Pad1)*%
X39029794Y-33847238D03*
D13*
%TO.P,C5,2*%
%TO.N,GND*%
X41529794Y-33847238D03*
%TD*%
D21*
%TO.P,RV1,1,1*%
%TO.N,GND*%
X75988286Y-52873106D03*
%TO.P,RV1,2,2*%
%TO.N,Net-(C11-Pad1)*%
X75988286Y-50333106D03*
%TO.P,RV1,3,3*%
%TO.N,Net-(C10-Pad2)*%
X75988286Y-47793106D03*
%TD*%
D16*
%TO.P,Q4,1,G*%
%TO.N,Net-(Q4-Pad1)*%
X74104517Y-77304451D03*
D17*
%TO.P,Q4,2,D*%
%TO.N,Net-(D5-Pad2)*%
X74104517Y-79844451D03*
%TO.P,Q4,3,S*%
%TO.N,GND*%
X74104517Y-82384451D03*
%TD*%
D12*
%TO.P,R5,1*%
%TO.N,Net-(Q3-Pad2)*%
X72528286Y-65803750D03*
D13*
%TO.P,R5,2*%
%TO.N,GND*%
X69988286Y-65803750D03*
%TD*%
D12*
%TO.P,C6,1*%
%TO.N,Net-(C5-Pad1)*%
X52784722Y-31480340D03*
D13*
%TO.P,C6,2*%
%TO.N,GND*%
X52784722Y-36480340D03*
%TD*%
D22*
%TO.P,Q2,1,S*%
%TO.N,Net-(Q2-Pad1)*%
X50080000Y-57000000D03*
%TO.P,Q2,2,G*%
%TO.N,Net-(C4-Pad1)*%
X47540000Y-57000000D03*
%TO.P,Q2,3,D*%
%TO.N,Net-(C7-Pad1)*%
X45000000Y-57000000D03*
%TD*%
D23*
%TO.P,FAN2,1,-*%
%TO.N,Net-(D5-Pad2)*%
X69810000Y-97794404D03*
%TO.P,FAN2,2,+*%
%TO.N,Net-(C5-Pad1)*%
X67270000Y-97794404D03*
%TO.P,FAN2,3,Tacho*%
%TO.N,unconnected-(FAN2-Pad3)*%
X64730000Y-97794404D03*
%TO.P,FAN2,4,PWM*%
%TO.N,Net-(FAN1-Pad4)*%
X62190000Y-97794404D03*
%TD*%
D12*
%TO.P,,*%
%TO.N,Net-(C7-Pad1)*%
X43738286Y-66140131D03*
%TD*%
%TO.P,C1,1*%
%TO.N,Net-(C1-Pad1)*%
X33028792Y-76000000D03*
D13*
%TO.P,C1,2*%
%TO.N,GND*%
X36528792Y-76000000D03*
%TD*%
D12*
%TO.P,C8,1,+*%
%TO.N,Net-(C7-Pad2)*%
X47238286Y-78140131D03*
D13*
%TO.P,C8,2,-*%
%TO.N,GND*%
X60738286Y-78140131D03*
%TD*%
%TO.P,R1,1*%
%TO.N,GND*%
X41000000Y-58144515D03*
%TO.P,R1,2*%
%TO.N,Net-(C4-Pad1)*%
X41000000Y-55604515D03*
%TD*%
%TO.P,C10,1*%
%TO.N,GND*%
X75988286Y-59140131D03*
D12*
%TO.P,C10,2*%
%TO.N,Net-(C10-Pad2)*%
X75988286Y-56640131D03*
%TD*%
%TO.P,C3,1*%
%TO.N,Net-(C3-Pad1)*%
X46186198Y-45000000D03*
D13*
%TO.P,C3,2*%
%TO.N,GND*%
X48686198Y-45000000D03*
%TD*%
D14*
%TO.P,D4,1,K*%
%TO.N,Net-(C5-Pad1)*%
X53988286Y-58140131D03*
%TO.P,D4,2,A*%
%TO.N,Net-(C7-Pad1)*%
X53988286Y-50340131D03*
%TD*%
D12*
%TO.P,R7,1*%
%TO.N,Net-(Q4-Pad1)*%
X75988286Y-69603750D03*
D13*
%TO.P,R7,2*%
%TO.N,GND*%
X75988286Y-72143750D03*
%TD*%
D24*
%TO.P,D2,1,K*%
%TO.N,Net-(D2-Pad1)*%
X47436847Y-35190000D03*
D25*
%TO.P,D2,2,A*%
%TO.N,Net-(C3-Pad1)*%
X47436847Y-39000000D03*
%TD*%
D12*
%TO.P,,*%
%TO.N,Net-(C7-Pad2)*%
X64238286Y-66140131D03*
%TD*%
%TO.P,C2,1*%
%TO.N,Net-(C1-Pad1)*%
X32226954Y-69479913D03*
D13*
%TO.P,C2,2*%
%TO.N,GND*%
X37226954Y-69479913D03*
%TD*%
D12*
%TO.P,R8,1*%
%TO.N,Net-(C5-Pad1)*%
X65370112Y-31480340D03*
D13*
%TO.P,R8,2*%
%TO.N,Net-(C12-Pad1)*%
X65370112Y-39100340D03*
%TD*%
D26*
%TO.P,Q3,1,S*%
%TO.N,GND*%
X70836340Y-68920000D03*
D22*
%TO.P,Q3,2,G*%
%TO.N,Net-(Q3-Pad2)*%
X70836340Y-71460000D03*
%TO.P,Q3,3,D*%
%TO.N,Net-(FAN1-Pad4)*%
X70836340Y-74000000D03*
%TD*%
D12*
%TO.P,C7,1,+*%
%TO.N,Net-(C7-Pad1)*%
X47238286Y-66140131D03*
%TO.P,C7,2,-*%
%TO.N,Net-(C7-Pad2)*%
X60738286Y-66140131D03*
%TD*%
D13*
%TO.P,,*%
%TO.N,GND*%
X64238286Y-78140131D03*
%TD*%
%TO.P,R9,1*%
%TO.N,GND*%
X69106870Y-31480340D03*
%TO.P,R9,2*%
%TO.N,Net-(C12-Pad1)*%
X69106870Y-39100340D03*
%TD*%
D22*
%TO.P,LDO2,1,VO*%
%TO.N,Net-(C10-Pad2)*%
X50080000Y-51293212D03*
D26*
%TO.P,LDO2,2,GND*%
%TO.N,GND*%
X47540000Y-51293212D03*
D22*
%TO.P,LDO2,3,VI*%
%TO.N,Net-(D2-Pad1)*%
X45000000Y-51293212D03*
%TD*%
D27*
%TO.P,POWER1,1,Ext*%
%TO.N,GND*%
X42228468Y-87508401D03*
D28*
%TO.P,POWER1,2,In*%
%TO.N,Net-(D1-Pad2)*%
X42228468Y-92508401D03*
%TD*%
D23*
%TO.P,S1,1,Pin_1*%
%TO.N,Net-(D1-Pad1)*%
X35000000Y-83000000D03*
D21*
%TO.P,S1,2,Pin_2*%
%TO.N,Net-(C1-Pad1)*%
X32460000Y-83000000D03*
%TD*%
D12*
%TO.P,R6,1*%
%TO.N,Net-(Q4-Pad1)*%
X75988286Y-65803750D03*
D13*
%TO.P,R6,2*%
%TO.N,Net-(R6-Pad2)*%
X75988286Y-63263750D03*
%TD*%
D29*
%TO.P,D1,1,K*%
%TO.N,Net-(D1-Pad1)*%
X39519158Y-100010338D03*
D30*
%TO.P,D1,2,A*%
%TO.N,Net-(D1-Pad2)*%
X43819158Y-100010338D03*
%TD*%
D23*
%TO.P,FAN1,1,-*%
%TO.N,Net-(D5-Pad2)*%
X68880071Y-88375700D03*
%TO.P,FAN1,2,+*%
%TO.N,Net-(C5-Pad1)*%
X66340071Y-88375700D03*
%TO.P,FAN1,3,Tacho*%
%TO.N,unconnected-(FAN1-Pad3)*%
X63800071Y-88375700D03*
%TO.P,FAN1,4,PWM*%
%TO.N,Net-(FAN1-Pad4)*%
X61260071Y-88375700D03*
%TD*%
D12*
%TO.P,R4,1*%
%TO.N,Net-(Q3-Pad2)*%
X72528286Y-62003750D03*
D13*
%TO.P,R4,2*%
%TO.N,Net-(R4-Pad2)*%
X69988286Y-62003750D03*
%TD*%
D31*
%TO.P,SR1,1,+VIN*%
%TO.N,Net-(C1-Pad1)*%
X36426012Y-63540000D03*
D18*
%TO.P,SR1,2,GND*%
%TO.N,GND*%
X36426012Y-61000000D03*
D31*
%TO.P,SR1,3,+VOUT*%
%TO.N,Net-(C4-Pad1)*%
X36426012Y-58460000D03*
%TD*%
D13*
%TO.P,C9,1*%
%TO.N,GND*%
X60500000Y-54320131D03*
D12*
%TO.P,C9,2*%
%TO.N,Net-(C10-Pad2)*%
X58000000Y-54320131D03*
%TD*%
%TO.P,U1,1,~{RESET}/PB5*%
%TO.N,Net-(C10-Pad2)*%
X71988286Y-50380000D03*
D13*
%TO.P,U1,2,XTAL1/PB3*%
%TO.N,Net-(C11-Pad1)*%
X69448286Y-50380000D03*
%TO.P,U1,3,XTAL2/PB4*%
%TO.N,Net-(C12-Pad1)*%
X66908286Y-50380000D03*
%TO.P,U1,4,GND*%
%TO.N,GND*%
X64368286Y-50380000D03*
%TO.P,U1,5,AREF/PB0*%
%TO.N,unconnected-(U1-Pad5)*%
X64368286Y-58000000D03*
%TO.P,U1,6,PB1*%
%TO.N,Net-(R4-Pad2)*%
X66908286Y-58000000D03*
%TO.P,U1,7,PB2*%
%TO.N,Net-(R6-Pad2)*%
X69448286Y-58000000D03*
%TO.P,U1,8,VCC*%
%TO.N,Net-(C10-Pad2)*%
X71988286Y-58000000D03*
%TD*%
D12*
%TO.P,R2,1*%
%TO.N,Net-(C5-Pad1)*%
X57206598Y-31480340D03*
D13*
%TO.P,R2,2*%
%TO.N,Net-(Q2-Pad1)*%
X57206598Y-44180340D03*
%TD*%
D24*
%TO.P,D3,1,K*%
%TO.N,Net-(C5-Pad1)*%
X32440301Y-47187871D03*
D25*
%TO.P,D3,2,A*%
%TO.N,Net-(C4-Pad1)*%
X32440301Y-50997871D03*
%TD*%
D31*
%TO.P,,*%
%TO.N,Net-(C1-Pad1)*%
X50238286Y-72140131D03*
%TD*%
D32*
%TO.N,Net-(C1-Pad1)*%
X42000000Y-52087449D02*
X41535666Y-52087449D01*
D33*
X36426012Y-63540000D02*
X34460000Y-63540000D01*
X32175657Y-74000000D02*
X33006716Y-74831059D01*
X32181261Y-72140131D02*
X50238286Y-72140131D01*
X34460000Y-63540000D02*
X32175657Y-65824343D01*
X33006716Y-74831059D02*
X33006716Y-77924102D01*
X42265873Y-52198646D02*
X43112240Y-53045013D01*
X41460000Y-63540000D02*
X36426012Y-63540000D01*
D32*
X41376883Y-51928666D02*
X41376883Y-50093309D01*
D33*
X32460000Y-78470818D02*
X32460000Y-83000000D01*
X33006716Y-77924102D02*
X32460000Y-78470818D01*
X43112240Y-53045013D02*
X43112240Y-61887760D01*
D32*
X41535666Y-52087449D02*
X41376883Y-51928666D01*
D33*
X43112240Y-61887760D02*
X41460000Y-63540000D01*
X32175657Y-65824343D02*
X32175657Y-74000000D01*
%TO.N,Net-(D2-Pad1)*%
X47436847Y-35190000D02*
X45692262Y-35190000D01*
X43413075Y-37469187D02*
X43413075Y-40120000D01*
X45692262Y-35190000D02*
X43413075Y-37469187D01*
D34*
X50159506Y-46840494D02*
X48717448Y-48282552D01*
X48717448Y-48282552D02*
X46217448Y-48282552D01*
X48714735Y-35190000D02*
X50159506Y-36634771D01*
X45000000Y-49500000D02*
X45000000Y-51293212D01*
X47436847Y-35190000D02*
X48714735Y-35190000D01*
X50159506Y-36634771D02*
X50159506Y-46840494D01*
X46217448Y-48282552D02*
X45000000Y-49500000D01*
D35*
%TO.N,Net-(FAN1-Pad4)*%
X61260071Y-91260071D02*
X62190000Y-92190000D01*
X61260071Y-88375700D02*
X61260071Y-91260071D01*
X62190000Y-92190000D02*
X62190000Y-97794404D01*
D33*
%TO.N,Net-(D1-Pad1)*%
X37000000Y-83000000D02*
X39519158Y-85519158D01*
X35000000Y-83000000D02*
X37000000Y-83000000D01*
X39519158Y-85519158D02*
X39519158Y-100010338D01*
%TO.N,Net-(D1-Pad2)*%
X43819158Y-94099091D02*
X43819158Y-100010338D01*
X42228468Y-92508401D02*
X43819158Y-94099091D01*
%TO.N,Net-(C3-Pad1)*%
X42600610Y-42564562D02*
X45124513Y-42564562D01*
D32*
X41376883Y-42286024D02*
X41376883Y-45013309D01*
D33*
X45124513Y-42564562D02*
X47436847Y-40252228D01*
X47436847Y-40252228D02*
X47436847Y-39000000D01*
D36*
X43414565Y-45000000D02*
X46186198Y-45000000D01*
D32*
X44000000Y-42110074D02*
X41162641Y-42110074D01*
D34*
%TO.N,Net-(C4-Pad1)*%
X38833075Y-40120000D02*
X37001574Y-41951501D01*
X37001574Y-54001574D02*
X38604515Y-55604515D01*
X33157185Y-50280987D02*
X36962709Y-50280987D01*
X37001574Y-41951501D02*
X37001574Y-54001574D01*
D33*
X32440301Y-56457295D02*
X34443006Y-58460000D01*
D34*
X32440301Y-50997871D02*
X33157185Y-50280987D01*
D33*
X34443006Y-58460000D02*
X36426012Y-58460000D01*
X32440301Y-50997871D02*
X32440301Y-56457295D01*
D34*
X38604515Y-55604515D02*
X41000000Y-55604515D01*
D35*
%TO.N,Net-(Q3-Pad2)*%
X72528286Y-61803750D02*
X72528286Y-69768054D01*
X72528286Y-69768054D02*
X70836340Y-71460000D01*
D34*
%TO.N,Net-(Q4-Pad1)*%
X75988286Y-69603750D02*
X74104517Y-71487519D01*
X75988286Y-65803750D02*
X75988286Y-69603750D01*
X74104517Y-71487519D02*
X74104517Y-77304451D01*
D35*
%TO.N,Net-(R4-Pad2)*%
X68436468Y-62003750D02*
X69988286Y-62003750D01*
X66908286Y-58000000D02*
X66908286Y-60475568D01*
X66908286Y-60475568D02*
X68436468Y-62003750D01*
D34*
%TO.N,Net-(C11-Pad1)*%
X72155180Y-46500000D02*
X75988286Y-50333106D01*
X69448286Y-50380000D02*
X69448286Y-46841416D01*
X69448286Y-46841416D02*
X69106870Y-46500000D01*
X69106870Y-46500000D02*
X72155180Y-46500000D01*
%TO.N,Net-(C10-Pad2)*%
X74628417Y-58000000D02*
X75988286Y-56640131D01*
X71988286Y-55697405D02*
X71988286Y-50380000D01*
X71988286Y-58000000D02*
X74628417Y-58000000D01*
X59454307Y-55774438D02*
X58000000Y-54320131D01*
X77438896Y-55189521D02*
X75988286Y-56640131D01*
X75988286Y-56640131D02*
X75122593Y-55774438D01*
X77438896Y-49243716D02*
X77438896Y-55189521D01*
X75988286Y-47793106D02*
X77438896Y-49243716D01*
X75122593Y-55774438D02*
X59454307Y-55774438D01*
%TO.N,Net-(R6-Pad2)*%
X75988286Y-62081960D02*
X75988286Y-63263750D01*
X73687995Y-59781669D02*
X75988286Y-62081960D01*
X69448286Y-58000000D02*
X71229955Y-59781669D01*
X71229955Y-59781669D02*
X73687995Y-59781669D01*
D37*
%TO.N,Net-(C5-Pad1)*%
X55880872Y-63469001D02*
X65469001Y-63469001D01*
D33*
X32834847Y-37657564D02*
X31265597Y-39226814D01*
X37496546Y-35401849D02*
X35240831Y-37657564D01*
D34*
X63373703Y-33745440D02*
X65570000Y-31549143D01*
D33*
X61279931Y-31470817D02*
X61270408Y-31480340D01*
D37*
X56000000Y-52118461D02*
X56000000Y-56128417D01*
D36*
X40574539Y-35391983D02*
X39029794Y-33847238D01*
D33*
X41415220Y-31480340D02*
X40620221Y-32275339D01*
D37*
X53988286Y-61576415D02*
X55880872Y-63469001D01*
D36*
X40534877Y-32342155D02*
X39029794Y-33847238D01*
D33*
X31265597Y-39226814D02*
X31265597Y-46013167D01*
D37*
X66340071Y-82340264D02*
X66340071Y-93109864D01*
X56000000Y-56128417D02*
X53988286Y-58140131D01*
D33*
X41123075Y-40120000D02*
X41123075Y-35980658D01*
D37*
X63529079Y-33379733D02*
X63529079Y-44589382D01*
D33*
X35240831Y-37657564D02*
X32834847Y-37657564D01*
D37*
X66340071Y-93109864D02*
X67270000Y-94039793D01*
X67193909Y-75173836D02*
X70350204Y-78330131D01*
D33*
X56451334Y-31480340D02*
X41415220Y-31480340D01*
D36*
X39029794Y-33847238D02*
X37484307Y-35392725D01*
D37*
X67270000Y-94039793D02*
X67270000Y-97794404D01*
D33*
X61270408Y-31480340D02*
X56451334Y-31480340D01*
D37*
X53988286Y-58140131D02*
X53988286Y-61576415D01*
D33*
X41123075Y-35980658D02*
X40563254Y-35420837D01*
D37*
X63529079Y-44589382D02*
X56000000Y-52118461D01*
X67193909Y-65193909D02*
X67193909Y-75173836D01*
X65469001Y-63469001D02*
X67193909Y-65193909D01*
X70350204Y-78330131D02*
X66340071Y-82340264D01*
D34*
X65570000Y-31549143D02*
X65570000Y-31480340D01*
D33*
X31265597Y-46013167D02*
X32440301Y-47187871D01*
D37*
X61629686Y-31480340D02*
X63529079Y-33379733D01*
D36*
%TO.N,Net-(C7-Pad1)*%
X53988286Y-50011714D02*
X53988286Y-50340131D01*
X43738286Y-64261714D02*
X43738286Y-66140131D01*
X60569444Y-40160582D02*
X60569444Y-43430556D01*
D37*
X51919270Y-61571726D02*
X47350865Y-66140131D01*
D36*
X45000000Y-63000000D02*
X43738286Y-64261714D01*
X45000000Y-57000000D02*
X45000000Y-63000000D01*
D37*
X53988286Y-54501063D02*
X51919270Y-56570079D01*
D36*
X60569444Y-43430556D02*
X53988286Y-50011714D01*
D37*
X51919270Y-56570079D02*
X51919270Y-61571726D01*
X53988286Y-50340131D02*
X53988286Y-54501063D01*
D36*
X61629686Y-39100340D02*
X60569444Y-40160582D01*
D37*
X47238286Y-66140131D02*
X43738286Y-66140131D01*
%TO.N,Net-(C7-Pad2)*%
X59986579Y-66140131D02*
X47986579Y-78140131D01*
X47238286Y-78140131D02*
X43738286Y-78140131D01*
X60738286Y-66140131D02*
X64238286Y-66140131D01*
D36*
%TO.N,Net-(Q2-Pad1)*%
X51879882Y-48120118D02*
X51879882Y-53120118D01*
X57206598Y-44180340D02*
X55819660Y-44180340D01*
X51879882Y-53120118D02*
X50080000Y-54920000D01*
X55819660Y-44180340D02*
X51879882Y-48120118D01*
X50080000Y-54920000D02*
X50080000Y-57000000D01*
D34*
%TO.N,Net-(C12-Pad1)*%
X69106870Y-39100340D02*
X69106870Y-40893130D01*
X69106870Y-40893130D02*
X67000000Y-43000000D01*
X67000000Y-43000000D02*
X67000000Y-44870112D01*
X66908286Y-48038174D02*
X66908286Y-50380000D01*
X69106870Y-39100340D02*
X65570000Y-39100340D01*
X65370112Y-46500000D02*
X66908286Y-48038174D01*
X67000000Y-44870112D02*
X65370112Y-46500000D01*
D37*
%TO.N,Net-(D5-Pad2)*%
X68880071Y-88375700D02*
X68880071Y-83610264D01*
X72645884Y-79844451D02*
X74104517Y-79844451D01*
X68880071Y-83610264D02*
X72645884Y-79844451D01*
X68880071Y-91880071D02*
X68880071Y-88375700D01*
X69810000Y-92810000D02*
X68880071Y-91880071D01*
X69810000Y-97794404D02*
X69810000Y-92810000D01*
%TD*%
%TA.AperFunction,Conductor*%
%TO.N,Net-(C3-Pad1)*%
G36*
X42566551Y-41816091D02*
G01*
X42743128Y-41833483D01*
X42767345Y-41838299D01*
X42931197Y-41888002D01*
X42954017Y-41897455D01*
X43105019Y-41978167D01*
X43125544Y-41991881D01*
X43257909Y-42100510D01*
X43275362Y-42117963D01*
X43368742Y-42231748D01*
X43383985Y-42250322D01*
X43397707Y-42270859D01*
X43478418Y-42421858D01*
X43487867Y-42444668D01*
X43537572Y-42608523D01*
X43542389Y-42632743D01*
X43559781Y-42809320D01*
X43560388Y-42821671D01*
X43560387Y-46101202D01*
X43559780Y-46113552D01*
X43542389Y-46290126D01*
X43537572Y-46314347D01*
X43537570Y-46314355D01*
X43487869Y-46478199D01*
X43478418Y-46501015D01*
X43397708Y-46652014D01*
X43397706Y-46652017D01*
X43383988Y-46672547D01*
X43275361Y-46804910D01*
X43257908Y-46822363D01*
X43125545Y-46930990D01*
X43105014Y-46944708D01*
X43024693Y-46987640D01*
X42955187Y-47002112D01*
X42888891Y-46976708D01*
X42848889Y-46924736D01*
X42809244Y-46829024D01*
X42809242Y-46829020D01*
X42807349Y-46824450D01*
X42675719Y-46609650D01*
X42672507Y-46605890D01*
X42672504Y-46605885D01*
X42515320Y-46421847D01*
X42512107Y-46418085D01*
X42390649Y-46314350D01*
X42324307Y-46257688D01*
X42324302Y-46257685D01*
X42320542Y-46254473D01*
X42105742Y-46122843D01*
X42054483Y-46101611D01*
X42013607Y-46074297D01*
X41389695Y-45450385D01*
X41375751Y-45442771D01*
X41373918Y-45442902D01*
X41367303Y-45447153D01*
X40740159Y-46074297D01*
X40699283Y-46101611D01*
X40648024Y-46122843D01*
X40433224Y-46254473D01*
X40429464Y-46257685D01*
X40429459Y-46257688D01*
X40363117Y-46314350D01*
X40241659Y-46418085D01*
X40238446Y-46421847D01*
X40081262Y-46605885D01*
X40081259Y-46605890D01*
X40078047Y-46609650D01*
X39946417Y-46824450D01*
X39872828Y-47002112D01*
X39861439Y-47029607D01*
X39816891Y-47084888D01*
X39745030Y-47107389D01*
X38952316Y-47107389D01*
X38939966Y-47106782D01*
X38763389Y-47089390D01*
X38739172Y-47084574D01*
X38575319Y-47034871D01*
X38552500Y-47025418D01*
X38481822Y-46987640D01*
X38401498Y-46944706D01*
X38380973Y-46930992D01*
X38248608Y-46822363D01*
X38231155Y-46804910D01*
X38122532Y-46672551D01*
X38108810Y-46652014D01*
X38028099Y-46501015D01*
X38018648Y-46478199D01*
X37968945Y-46314350D01*
X37964128Y-46290130D01*
X37946736Y-46113553D01*
X37946129Y-46101202D01*
X37946129Y-45018239D01*
X39864608Y-45018239D01*
X39882455Y-45245008D01*
X39883998Y-45254755D01*
X39937100Y-45475936D01*
X39940149Y-45485321D01*
X40027196Y-45695472D01*
X40031678Y-45704267D01*
X40109598Y-45831419D01*
X40120054Y-45840879D01*
X40128833Y-45837095D01*
X40939807Y-45026121D01*
X40946185Y-45014441D01*
X41806345Y-45014441D01*
X41806476Y-45016274D01*
X41810727Y-45022889D01*
X42621891Y-45834053D01*
X42634271Y-45840813D01*
X42641921Y-45835086D01*
X42722088Y-45704267D01*
X42726570Y-45695472D01*
X42813617Y-45485321D01*
X42816666Y-45475936D01*
X42869768Y-45254755D01*
X42871311Y-45245008D01*
X42889158Y-45018239D01*
X42889158Y-45008379D01*
X42871311Y-44781610D01*
X42869768Y-44771863D01*
X42816666Y-44550682D01*
X42813617Y-44541297D01*
X42726570Y-44331146D01*
X42722088Y-44322351D01*
X42644168Y-44195199D01*
X42633712Y-44185739D01*
X42624933Y-44189523D01*
X41813959Y-45000497D01*
X41806345Y-45014441D01*
X40946185Y-45014441D01*
X40947421Y-45012177D01*
X40947290Y-45010344D01*
X40943039Y-45003729D01*
X40131875Y-44192565D01*
X40119495Y-44185805D01*
X40111845Y-44191532D01*
X40031678Y-44322351D01*
X40027196Y-44331146D01*
X39940149Y-44541297D01*
X39937100Y-44550682D01*
X39883998Y-44771863D01*
X39882455Y-44781610D01*
X39864608Y-45008379D01*
X39864608Y-45018239D01*
X37946129Y-45018239D01*
X37946130Y-43756480D01*
X40549313Y-43756480D01*
X40553097Y-43765259D01*
X41364071Y-44576233D01*
X41378015Y-44583847D01*
X41379848Y-44583716D01*
X41386463Y-44579465D01*
X42197627Y-43768301D01*
X42204387Y-43755921D01*
X42198660Y-43748271D01*
X42067841Y-43668104D01*
X42059046Y-43663622D01*
X41848895Y-43576575D01*
X41839510Y-43573526D01*
X41618329Y-43520424D01*
X41608582Y-43518881D01*
X41381813Y-43501034D01*
X41371953Y-43501034D01*
X41145184Y-43518881D01*
X41135437Y-43520424D01*
X40914256Y-43573526D01*
X40904871Y-43576575D01*
X40694720Y-43663622D01*
X40685925Y-43668104D01*
X40558773Y-43746024D01*
X40549313Y-43756480D01*
X37946130Y-43756480D01*
X37946130Y-42821671D01*
X37946737Y-42809321D01*
X37964128Y-42632747D01*
X37968945Y-42608526D01*
X38018648Y-42444673D01*
X38028101Y-42421854D01*
X38058435Y-42365103D01*
X38108813Y-42270853D01*
X38122529Y-42250326D01*
X38231156Y-42117963D01*
X38248609Y-42100510D01*
X38380972Y-41991883D01*
X38401499Y-41978167D01*
X38552500Y-41897455D01*
X38575320Y-41888002D01*
X38739172Y-41838299D01*
X38763390Y-41833483D01*
X38939967Y-41816091D01*
X38952317Y-41815484D01*
X42554201Y-41815484D01*
X42566551Y-41816091D01*
G37*
%TD.AperFunction*%
%TD*%
%TA.AperFunction,Conductor*%
%TO.N,Net-(C1-Pad1)*%
G36*
X39858084Y-48127712D02*
G01*
X39906372Y-48185491D01*
X39918011Y-48213589D01*
X39946417Y-48282168D01*
X40078047Y-48496968D01*
X40081259Y-48500728D01*
X40081262Y-48500733D01*
X40226139Y-48670361D01*
X40241659Y-48688533D01*
X40245421Y-48691746D01*
X40429459Y-48848930D01*
X40429464Y-48848933D01*
X40433224Y-48852145D01*
X40648024Y-48983775D01*
X40652593Y-48985668D01*
X40652594Y-48985668D01*
X40699283Y-49005007D01*
X40740159Y-49032321D01*
X41364071Y-49656233D01*
X41378015Y-49663847D01*
X41379848Y-49663716D01*
X41386463Y-49659465D01*
X42013607Y-49032321D01*
X42054483Y-49005007D01*
X42101172Y-48985668D01*
X42101173Y-48985668D01*
X42105742Y-48983775D01*
X42320542Y-48852145D01*
X42324302Y-48848933D01*
X42324307Y-48848930D01*
X42508345Y-48691746D01*
X42512107Y-48688533D01*
X42527627Y-48670361D01*
X42672504Y-48500733D01*
X42672507Y-48500728D01*
X42675719Y-48496968D01*
X42807349Y-48282168D01*
X42809245Y-48277591D01*
X42812858Y-48268869D01*
X42857407Y-48213589D01*
X42924770Y-48191169D01*
X42988661Y-48205967D01*
X43109194Y-48270393D01*
X43129721Y-48284109D01*
X43262084Y-48392736D01*
X43279537Y-48410189D01*
X43388164Y-48542552D01*
X43401882Y-48563082D01*
X43482592Y-48714081D01*
X43492045Y-48736900D01*
X43541748Y-48900753D01*
X43546564Y-48924970D01*
X43557138Y-49032321D01*
X43563956Y-49101547D01*
X43564563Y-49113897D01*
X43564563Y-52384758D01*
X43563956Y-52397108D01*
X43546565Y-52573682D01*
X43541748Y-52597902D01*
X43492045Y-52761754D01*
X43482592Y-52784574D01*
X43401882Y-52935573D01*
X43388164Y-52956103D01*
X43279537Y-53088466D01*
X43262084Y-53105919D01*
X43129721Y-53214546D01*
X43109194Y-53228262D01*
X43016980Y-53277552D01*
X42958192Y-53308974D01*
X42935373Y-53318427D01*
X42771520Y-53368130D01*
X42747303Y-53372946D01*
X42570726Y-53390338D01*
X42558376Y-53390945D01*
X38942770Y-53390945D01*
X38930420Y-53390338D01*
X38753843Y-53372946D01*
X38729626Y-53368130D01*
X38565773Y-53318427D01*
X38542954Y-53308974D01*
X38484166Y-53277552D01*
X38391952Y-53228262D01*
X38371425Y-53214546D01*
X38239062Y-53105919D01*
X38221609Y-53088466D01*
X38112982Y-52956103D01*
X38099264Y-52935573D01*
X38018554Y-52784574D01*
X38009101Y-52761754D01*
X37959398Y-52597902D01*
X37954581Y-52573682D01*
X37937190Y-52397108D01*
X37936583Y-52384758D01*
X37936583Y-51350697D01*
X40549379Y-51350697D01*
X40555106Y-51358347D01*
X40685925Y-51438514D01*
X40694720Y-51442996D01*
X40904871Y-51530043D01*
X40914256Y-51533092D01*
X41135437Y-51586194D01*
X41145184Y-51587737D01*
X41371953Y-51605584D01*
X41381813Y-51605584D01*
X41608582Y-51587737D01*
X41618329Y-51586194D01*
X41839510Y-51533092D01*
X41848895Y-51530043D01*
X42059046Y-51442996D01*
X42067841Y-51438514D01*
X42194993Y-51360594D01*
X42204453Y-51350138D01*
X42200669Y-51341359D01*
X41389695Y-50530385D01*
X41375751Y-50522771D01*
X41373918Y-50522902D01*
X41367303Y-50527153D01*
X40556139Y-51338317D01*
X40549379Y-51350697D01*
X37936583Y-51350697D01*
X37936583Y-50098239D01*
X39864608Y-50098239D01*
X39882455Y-50325008D01*
X39883998Y-50334755D01*
X39937100Y-50555936D01*
X39940149Y-50565321D01*
X40027196Y-50775472D01*
X40031678Y-50784267D01*
X40109598Y-50911419D01*
X40120054Y-50920879D01*
X40128833Y-50917095D01*
X40939807Y-50106121D01*
X40946185Y-50094441D01*
X41806345Y-50094441D01*
X41806476Y-50096274D01*
X41810727Y-50102889D01*
X42621891Y-50914053D01*
X42634271Y-50920813D01*
X42641921Y-50915086D01*
X42722088Y-50784267D01*
X42726570Y-50775472D01*
X42813617Y-50565321D01*
X42816666Y-50555936D01*
X42869768Y-50334755D01*
X42871311Y-50325008D01*
X42889158Y-50098239D01*
X42889158Y-50088379D01*
X42871311Y-49861610D01*
X42869768Y-49851863D01*
X42816666Y-49630682D01*
X42813617Y-49621297D01*
X42726570Y-49411146D01*
X42722088Y-49402351D01*
X42644168Y-49275199D01*
X42633712Y-49265739D01*
X42624933Y-49269523D01*
X41813959Y-50080497D01*
X41806345Y-50094441D01*
X40946185Y-50094441D01*
X40947421Y-50092177D01*
X40947290Y-50090344D01*
X40943039Y-50083729D01*
X40131875Y-49272565D01*
X40119495Y-49265805D01*
X40111845Y-49271532D01*
X40031678Y-49402351D01*
X40027196Y-49411146D01*
X39940149Y-49621297D01*
X39937100Y-49630682D01*
X39883998Y-49851863D01*
X39882455Y-49861610D01*
X39864608Y-50088379D01*
X39864608Y-50098239D01*
X37936583Y-50098239D01*
X37936583Y-49113897D01*
X37937190Y-49101547D01*
X37944008Y-49032321D01*
X37954582Y-48924970D01*
X37959398Y-48900753D01*
X38009101Y-48736900D01*
X38018554Y-48714081D01*
X38099264Y-48563082D01*
X38112982Y-48542552D01*
X38221609Y-48410189D01*
X38239062Y-48392736D01*
X38371425Y-48284109D01*
X38391952Y-48270393D01*
X38542954Y-48189681D01*
X38565774Y-48180228D01*
X38729626Y-48130525D01*
X38753843Y-48125709D01*
X38930420Y-48108317D01*
X38942770Y-48107710D01*
X39789963Y-48107710D01*
X39858084Y-48127712D01*
G37*
%TD.AperFunction*%
%TD*%
M02*
