%TF.GenerationSoftware,KiCad,Pcbnew,(6.0.11)*%
%TF.CreationDate,2024-12-17T11:08:08+01:00*%
%TF.ProjectId,Solfacon,536f6c66-6163-46f6-9e2e-6b696361645f,rev?*%
%TF.SameCoordinates,Original*%
%TF.FileFunction,Soldermask,Bot*%
%TF.FilePolarity,Negative*%
%FSLAX46Y46*%
G04 Gerber Fmt 4.6, Leading zero omitted, Abs format (unit mm)*
G04 Created by KiCad (PCBNEW (6.0.11)) date 2024-12-17 11:08:08*
%MOMM*%
%LPD*%
G01*
G04 APERTURE LIST*
%ADD10C,1.600000*%
%ADD11O,1.600000X1.600000*%
%ADD12C,2.200000*%
%ADD13O,2.200000X2.200000*%
%ADD14C,2.000000*%
%ADD15O,2.000000X2.000000*%
%ADD16O,1.800000X1.800000*%
%ADD17C,1.717500*%
%ADD18O,1.717500X1.800000*%
%ADD19O,1.700000X1.700000*%
%ADD20C,3.200000*%
%ADD21C,1.500000*%
%ADD22C,1.295400*%
%ADD23C,1.700000*%
%ADD24C,2.400000*%
%ADD25O,2.400000X2.400000*%
%ADD26C,1.200000*%
%ADD27O,1.500000X1.500000*%
%ADD28O,2.100000X2.100000*%
%ADD29C,2.100000*%
%ADD30O,3.200000X3.200000*%
%ADD31C,1.800000*%
G04 APERTURE END LIST*
D10*
%TO.C,C12*%
X65370112Y-46500000D03*
D11*
X65370112Y-44000000D03*
%TD*%
D10*
%TO.C,R3*%
X61629686Y-31480340D03*
D11*
X61629686Y-39100340D03*
%TD*%
D12*
%TO.C,D5*%
X70350204Y-78330131D03*
D13*
X70350204Y-82140131D03*
%TD*%
D10*
%TO.C,C11*%
X69106870Y-46500000D03*
D11*
X69106870Y-44000000D03*
%TD*%
D10*
%TO.C,C4*%
X35582982Y-50280987D03*
D11*
X35582982Y-52780987D03*
%TD*%
D14*
%TO.C,LDO1*%
X41376883Y-50093309D03*
D15*
X41376883Y-47553309D03*
D14*
X41376883Y-45013309D03*
%TD*%
D16*
%TO.C,*%
X57738286Y-72140131D03*
%TD*%
D17*
%TO.C,Q1*%
X38833075Y-40120000D03*
D18*
X41123075Y-40120000D03*
X43413075Y-40120000D03*
%TD*%
D10*
%TO.C,*%
X43738286Y-78140131D03*
%TD*%
%TO.C,C5*%
X39029794Y-33847238D03*
D11*
X41529794Y-33847238D03*
%TD*%
D19*
%TO.C,RV1*%
X75988286Y-52873106D03*
X75988286Y-50333106D03*
X75988286Y-47793106D03*
%TD*%
D14*
%TO.C,Q4*%
X74104517Y-77304451D03*
D15*
X74104517Y-79844451D03*
X74104517Y-82384451D03*
%TD*%
D20*
%TO.C,REF\u002A\u002A*%
X33988286Y-41640131D03*
%TD*%
D10*
%TO.C,R5*%
X72528286Y-65803750D03*
D11*
X69988286Y-65803750D03*
%TD*%
D10*
%TO.C,C6*%
X52784722Y-31480340D03*
D11*
X52784722Y-36480340D03*
%TD*%
D21*
%TO.C,Q2*%
X50080000Y-57000000D03*
X47540000Y-57000000D03*
X45000000Y-57000000D03*
%TD*%
D22*
%TO.C,FAN2*%
X64730000Y-99954404D03*
D23*
X69810000Y-97794404D03*
X67270000Y-97794404D03*
X64730000Y-97794404D03*
X62190000Y-97794404D03*
%TD*%
D10*
%TO.C,*%
X43738286Y-66140131D03*
%TD*%
%TO.C,C1*%
X33028792Y-76000000D03*
D11*
X36528792Y-76000000D03*
%TD*%
D10*
%TO.C,C8*%
X47238286Y-78140131D03*
D11*
X60738286Y-78140131D03*
%TD*%
D20*
%TO.C,REF\u002A\u002A*%
X73988286Y-41640131D03*
%TD*%
D11*
%TO.C,R1*%
X41000000Y-58144515D03*
X41000000Y-55604515D03*
%TD*%
%TO.C,C10*%
X75988286Y-59140131D03*
D10*
X75988286Y-56640131D03*
%TD*%
%TO.C,C3*%
X46186198Y-45000000D03*
D11*
X48686198Y-45000000D03*
%TD*%
D12*
%TO.C,D4*%
X53988286Y-58140131D03*
X53988286Y-50340131D03*
%TD*%
D10*
%TO.C,R7*%
X75988286Y-69603750D03*
D11*
X75988286Y-72143750D03*
%TD*%
D20*
%TO.C,REF\u002A\u002A*%
X73988286Y-91640131D03*
%TD*%
D24*
%TO.C,D2*%
X47436847Y-35190000D03*
D25*
X47436847Y-39000000D03*
%TD*%
D26*
%TO.C, *%
X54000000Y-90000000D03*
%TD*%
D10*
%TO.C,*%
X64238286Y-66140131D03*
%TD*%
%TO.C,C2*%
X32226954Y-69479913D03*
D11*
X37226954Y-69479913D03*
%TD*%
D10*
%TO.C,R8*%
X65370112Y-31480340D03*
D11*
X65370112Y-39100340D03*
%TD*%
D27*
%TO.C,Q3*%
X70836340Y-68920000D03*
D21*
X70836340Y-71460000D03*
X70836340Y-74000000D03*
%TD*%
D10*
%TO.C,C7*%
X47238286Y-66140131D03*
X60738286Y-66140131D03*
%TD*%
D20*
%TO.C,REF\u002A\u002A*%
X33988286Y-91640131D03*
%TD*%
D11*
%TO.C,*%
X64238286Y-78140131D03*
%TD*%
%TO.C,R9*%
X69106870Y-31480340D03*
X69106870Y-39100340D03*
%TD*%
D21*
%TO.C,LDO2*%
X50080000Y-51293212D03*
D27*
X47540000Y-51293212D03*
D21*
X45000000Y-51293212D03*
%TD*%
D28*
%TO.C,POWER1*%
X42228468Y-87508401D03*
D29*
X42228468Y-92508401D03*
%TD*%
D23*
%TO.C,S1*%
X35000000Y-83000000D03*
D19*
X32460000Y-83000000D03*
%TD*%
D10*
%TO.C,R6*%
X75988286Y-65803750D03*
D11*
X75988286Y-63263750D03*
%TD*%
D20*
%TO.C,D1*%
X39519158Y-100010338D03*
D30*
X43819158Y-100010338D03*
%TD*%
D22*
%TO.C,FAN1*%
X63800071Y-90535700D03*
D23*
X68880071Y-88375700D03*
X66340071Y-88375700D03*
X63800071Y-88375700D03*
X61260071Y-88375700D03*
%TD*%
D10*
%TO.C,R4*%
X72528286Y-62003750D03*
D11*
X69988286Y-62003750D03*
%TD*%
D31*
%TO.C,SR1*%
X36426012Y-63540000D03*
D16*
X36426012Y-61000000D03*
D31*
X36426012Y-58460000D03*
%TD*%
D11*
%TO.C,C9*%
X60500000Y-54320131D03*
D10*
X58000000Y-54320131D03*
%TD*%
%TO.C,U1*%
X71988286Y-50380000D03*
D11*
X69448286Y-50380000D03*
X66908286Y-50380000D03*
X64368286Y-50380000D03*
X64368286Y-58000000D03*
X66908286Y-58000000D03*
X69448286Y-58000000D03*
X71988286Y-58000000D03*
%TD*%
D10*
%TO.C,R2*%
X57206598Y-31480340D03*
D11*
X57206598Y-44180340D03*
%TD*%
D24*
%TO.C,D3*%
X32440301Y-47187871D03*
D25*
X32440301Y-50997871D03*
%TD*%
D31*
%TO.C,*%
X50238286Y-72140131D03*
%TD*%
M02*
