M48
; DRILL file {KiCad (6.0.11)} date Mon Dec 16 16:40:22 2024
; FORMAT={-:-/ absolute / metric / decimal}
; #@! TF.CreationDate,2024-12-16T16:40:22+01:00
; #@! TF.GenerationSoftware,Kicad,Pcbnew,(6.0.11)
; #@! TF.FileFunction,Plated,1,2,PTH
FMAT,2
METRIC
; #@! TA.AperFunction,Plated,PTH,ComponentDrill
T1C0.800
; #@! TA.AperFunction,Plated,PTH,ComponentDrill
T2C1.000
; #@! TA.AperFunction,Plated,PTH,ComponentDrill
T3C1.067
; #@! TA.AperFunction,Plated,PTH,ComponentDrill
T4C1.070
; #@! TA.AperFunction,Plated,PTH,ComponentDrill
T5C1.100
; #@! TA.AperFunction,Plated,PTH,ComponentDrill
T6C1.200
; #@! TA.AperFunction,Plated,PTH,ComponentDrill
T7C1.600
%
G90
G05
T1
X32.227Y-69.48
X33.029Y-76.0
X35.583Y-50.281
X35.583Y-52.781
X36.529Y-76.0
X37.227Y-69.48
X39.03Y-33.847
X41.0Y-55.605
X41.0Y-58.145
X41.53Y-33.847
X43.738Y-66.14
X43.738Y-78.14
X45.0Y-51.293
X45.0Y-57.0
X46.186Y-45.0
X47.238Y-66.14
X47.238Y-78.14
X47.54Y-51.293
X47.54Y-57.0
X48.686Y-45.0
X50.08Y-51.293
X50.08Y-57.0
X52.785Y-31.48
X52.785Y-36.48
X57.207Y-31.48
X57.207Y-44.18
X58.0Y-54.32
X60.5Y-54.32
X60.738Y-66.14
X60.738Y-78.14
X61.63Y-31.48
X61.63Y-39.1
X64.238Y-66.14
X64.238Y-78.14
X64.368Y-50.38
X64.368Y-58.0
X65.37Y-31.48
X65.37Y-39.1
X65.57Y-44.0
X65.57Y-46.5
X66.908Y-50.38
X66.908Y-58.0
X69.107Y-31.48
X69.107Y-39.1
X69.107Y-44.0
X69.107Y-46.5
X69.448Y-50.38
X69.448Y-58.0
X69.988Y-62.004
X69.988Y-65.804
X70.836Y-68.92
X70.836Y-71.46
X70.836Y-74.0
X71.988Y-50.38
X71.988Y-58.0
X72.528Y-62.004
X72.528Y-65.804
X75.988Y-56.64
X75.988Y-59.14
X75.988Y-63.264
X75.988Y-65.804
X75.988Y-69.604
X75.988Y-72.144
T2
X32.46Y-83.0
X35.0Y-83.0
X50.238Y-72.14
X57.738Y-72.14
X75.988Y-47.793
X75.988Y-50.333
X75.988Y-52.873
T3
X61.26Y-88.376
X62.19Y-97.794
X63.8Y-88.376
X64.73Y-97.794
X66.34Y-88.376
X67.27Y-97.794
X68.88Y-88.376
X69.81Y-97.794
T4
X36.426Y-58.46
X36.426Y-61.0
X36.426Y-63.54
T5
X38.833Y-40.12
X41.123Y-40.12
X42.228Y-87.508
X42.228Y-92.508
X43.413Y-40.12
X70.35Y-78.33
X70.35Y-82.14
T6
X32.44Y-47.188
X32.44Y-50.998
X41.377Y-45.013
X41.377Y-47.553
X41.377Y-50.093
X47.437Y-35.19
X47.437Y-39.0
X53.988Y-50.34
X53.988Y-58.14
X74.105Y-77.304
X74.105Y-79.844
X74.105Y-82.384
T7
X39.519Y-100.01
X43.819Y-100.01
T0
M30
