%TF.GenerationSoftware,KiCad,Pcbnew,(6.0.11)*%
%TF.CreationDate,2024-12-17T11:08:08+01:00*%
%TF.ProjectId,Solfacon,536f6c66-6163-46f6-9e2e-6b696361645f,rev?*%
%TF.SameCoordinates,Original*%
%TF.FileFunction,Profile,NP*%
%FSLAX46Y46*%
G04 Gerber Fmt 4.6, Leading zero omitted, Abs format (unit mm)*
G04 Created by KiCad (PCBNEW (6.0.11)) date 2024-12-17 11:08:08*
%MOMM*%
%LPD*%
G01*
G04 APERTURE LIST*
%TA.AperFunction,Profile*%
%ADD10C,0.000100*%
%TD*%
G04 APERTURE END LIST*
D10*
X69973464Y-30002233D02*
X70060831Y-30008872D01*
X70146928Y-30019808D01*
X70231646Y-30034933D01*
X70314878Y-30054139D01*
X70396516Y-30077318D01*
X70476450Y-30104361D01*
X70554574Y-30135162D01*
X70630780Y-30169611D01*
X70704958Y-30207601D01*
X70777001Y-30249023D01*
X70846801Y-30293769D01*
X70914249Y-30341732D01*
X70979238Y-30392802D01*
X71041660Y-30446873D01*
X71101406Y-30503835D01*
X71158369Y-30563581D01*
X71212439Y-30626003D01*
X71263510Y-30690992D01*
X71311472Y-30758441D01*
X71356218Y-30828241D01*
X71397640Y-30900284D01*
X71435630Y-30974463D01*
X71470079Y-31050668D01*
X71500880Y-31128792D01*
X71527924Y-31208727D01*
X71551103Y-31290365D01*
X71570309Y-31373597D01*
X71585434Y-31458315D01*
X71596370Y-31544412D01*
X71603009Y-31631779D01*
X71605242Y-31720308D01*
X71605242Y-32055172D01*
X71611036Y-32283909D01*
X71628211Y-32509643D01*
X71656488Y-32732095D01*
X71695589Y-32950984D01*
X71745232Y-33166032D01*
X71805140Y-33376960D01*
X71875033Y-33583488D01*
X71954632Y-33785336D01*
X72043657Y-33982227D01*
X72141828Y-34173880D01*
X72248867Y-34360016D01*
X72364495Y-34540355D01*
X72488431Y-34714619D01*
X72620398Y-34882529D01*
X72760114Y-35043804D01*
X72907302Y-35198167D01*
X73061681Y-35345336D01*
X73222973Y-35485034D01*
X73390898Y-35616981D01*
X73565177Y-35740897D01*
X73745530Y-35856503D01*
X73931679Y-35963521D01*
X74123343Y-36061670D01*
X74320244Y-36150672D01*
X74522102Y-36230247D01*
X74728637Y-36300116D01*
X74939572Y-36360000D01*
X75154626Y-36409619D01*
X75373520Y-36448694D01*
X75595974Y-36476946D01*
X75821710Y-36494095D01*
X76050448Y-36499863D01*
X76279894Y-36499863D01*
X76368423Y-36502096D01*
X76455789Y-36508735D01*
X76541886Y-36519671D01*
X76626604Y-36534796D01*
X76709835Y-36554002D01*
X76791472Y-36577181D01*
X76871407Y-36604225D01*
X76949531Y-36635025D01*
X77025736Y-36669475D01*
X77099914Y-36707464D01*
X77171957Y-36748886D01*
X77241757Y-36793633D01*
X77309205Y-36841595D01*
X77374194Y-36892666D01*
X77436616Y-36946736D01*
X77496362Y-37003699D01*
X77553324Y-37063445D01*
X77607395Y-37125866D01*
X77658465Y-37190856D01*
X77706428Y-37258304D01*
X77751174Y-37328104D01*
X77792596Y-37400147D01*
X77830586Y-37474326D01*
X77865036Y-37550531D01*
X77895836Y-37628655D01*
X77922880Y-37708590D01*
X77946060Y-37790227D01*
X77965266Y-37873459D01*
X77980391Y-37958178D01*
X77991328Y-38044275D01*
X77997967Y-38131642D01*
X78000200Y-38220171D01*
X78000200Y-94780281D01*
X77997967Y-94868810D01*
X77991329Y-94956176D01*
X77980393Y-95042271D01*
X77965269Y-95126989D01*
X77946063Y-95210219D01*
X77922884Y-95291855D01*
X77895840Y-95371788D01*
X77865040Y-95449910D01*
X77830591Y-95526114D01*
X77792601Y-95600290D01*
X77751179Y-95672331D01*
X77706433Y-95742130D01*
X77658471Y-95809576D01*
X77607400Y-95874564D01*
X77553330Y-95936984D01*
X77496368Y-95996729D01*
X77436622Y-96053690D01*
X77374200Y-96107760D01*
X77309211Y-96158829D01*
X77241762Y-96206791D01*
X77171962Y-96251538D01*
X77099919Y-96292960D01*
X77025740Y-96330950D01*
X76949535Y-96365400D01*
X76871411Y-96396202D01*
X76791476Y-96423248D01*
X76709838Y-96446429D01*
X76626606Y-96465638D01*
X76541888Y-96480766D01*
X76455791Y-96491706D01*
X76368423Y-96498349D01*
X76279894Y-96500587D01*
X76050448Y-96500587D01*
X75821691Y-96506371D01*
X75595937Y-96523537D01*
X75373465Y-96551804D01*
X75154555Y-96590895D01*
X74939486Y-96640530D01*
X74728536Y-96700429D01*
X74521987Y-96770313D01*
X74320116Y-96849903D01*
X74123204Y-96938920D01*
X73931529Y-97037085D01*
X73745372Y-97144118D01*
X73565011Y-97259739D01*
X73390725Y-97383671D01*
X73222795Y-97515632D01*
X73061499Y-97655345D01*
X72907117Y-97802530D01*
X72759928Y-97956908D01*
X72620212Y-98118199D01*
X72488247Y-98286124D01*
X72364314Y-98460404D01*
X72248691Y-98640759D01*
X72141659Y-98826911D01*
X72043495Y-99018580D01*
X71954481Y-99215487D01*
X71874894Y-99417353D01*
X71805015Y-99623897D01*
X71745122Y-99834842D01*
X71695496Y-100049908D01*
X71656415Y-100268815D01*
X71628158Y-100491284D01*
X71611006Y-100717037D01*
X71605238Y-100945793D01*
X71605238Y-101280144D01*
X71603005Y-101368673D01*
X71596366Y-101456040D01*
X71585430Y-101542137D01*
X71570305Y-101626856D01*
X71551099Y-101710088D01*
X71527920Y-101791726D01*
X71500876Y-101871661D01*
X71470076Y-101949785D01*
X71435627Y-102025990D01*
X71397637Y-102100168D01*
X71356215Y-102172212D01*
X71311469Y-102242012D01*
X71263507Y-102309460D01*
X71212436Y-102374450D01*
X71158366Y-102436871D01*
X71101404Y-102496617D01*
X71041658Y-102553580D01*
X70979236Y-102607650D01*
X70914247Y-102658721D01*
X70846799Y-102706683D01*
X70776999Y-102751429D01*
X70704956Y-102792851D01*
X70630777Y-102830841D01*
X70554572Y-102865290D01*
X70476448Y-102896090D01*
X70396513Y-102923134D01*
X70314876Y-102946312D01*
X70231644Y-102965518D01*
X70146925Y-102980643D01*
X70060828Y-102991579D01*
X69973461Y-102998217D01*
X69884932Y-103000450D01*
X61725237Y-103000107D01*
X61636445Y-102997858D01*
X61548819Y-102991192D01*
X61462467Y-102980216D01*
X61377497Y-102965038D01*
X61294019Y-102945769D01*
X61212140Y-102922515D01*
X61131969Y-102895385D01*
X61053613Y-102864487D01*
X60977183Y-102829931D01*
X60902785Y-102791824D01*
X60830529Y-102750275D01*
X60760523Y-102705392D01*
X60692875Y-102657284D01*
X60627693Y-102606058D01*
X60565087Y-102551825D01*
X60505164Y-102494691D01*
X60448033Y-102434765D01*
X60393802Y-102372156D01*
X60342579Y-102306973D01*
X60294474Y-102239322D01*
X60249594Y-102169314D01*
X60208048Y-102097056D01*
X60169944Y-102022657D01*
X60135391Y-101946225D01*
X60104497Y-101867869D01*
X60077371Y-101787696D01*
X60054120Y-101705816D01*
X60034854Y-101622337D01*
X60019680Y-101537367D01*
X60008708Y-101451015D01*
X60002045Y-101363389D01*
X59999800Y-101274597D01*
X59999804Y-94915413D01*
X59997236Y-94813854D01*
X59989615Y-94713628D01*
X59977064Y-94614859D01*
X59959709Y-94517672D01*
X59937672Y-94422190D01*
X59911078Y-94328536D01*
X59880051Y-94236836D01*
X59844714Y-94147214D01*
X59805193Y-94059792D01*
X59761610Y-93974696D01*
X59714090Y-93892048D01*
X59662756Y-93811974D01*
X59607734Y-93734597D01*
X59549146Y-93660042D01*
X59487117Y-93588431D01*
X59421770Y-93519890D01*
X59353231Y-93454542D01*
X59281622Y-93392511D01*
X59207067Y-93333921D01*
X59129692Y-93278896D01*
X59049619Y-93227561D01*
X58966973Y-93180038D01*
X58881878Y-93136453D01*
X58794458Y-93096929D01*
X58704836Y-93061590D01*
X58613137Y-93030560D01*
X58519484Y-93003964D01*
X58424002Y-92981924D01*
X58326815Y-92964566D01*
X58228047Y-92952013D01*
X58127821Y-92944389D01*
X58026262Y-92941818D01*
X49973543Y-92941589D01*
X49875682Y-92944012D01*
X49778485Y-92951241D01*
X49682113Y-92963209D01*
X49586730Y-92979849D01*
X49492495Y-93001095D01*
X49399572Y-93026878D01*
X49308122Y-93057134D01*
X49218307Y-93091793D01*
X49130288Y-93130790D01*
X49044227Y-93174057D01*
X48960286Y-93221527D01*
X48878627Y-93273134D01*
X48799411Y-93328810D01*
X48722801Y-93388489D01*
X48648958Y-93452102D01*
X48578043Y-93519585D01*
X48510559Y-93590497D01*
X48446942Y-93664339D01*
X48387262Y-93740948D01*
X48331583Y-93820162D01*
X48279974Y-93901820D01*
X48232501Y-93985760D01*
X48189231Y-94071819D01*
X48150231Y-94159838D01*
X48115569Y-94249652D01*
X48085311Y-94341102D01*
X48059524Y-94434025D01*
X48038275Y-94528258D01*
X48021632Y-94623641D01*
X48009660Y-94720012D01*
X48002428Y-94817209D01*
X48000002Y-94915070D01*
X48000006Y-101274261D01*
X47997761Y-101363055D01*
X47991098Y-101450682D01*
X47980125Y-101537036D01*
X47964952Y-101622007D01*
X47945686Y-101705488D01*
X47922436Y-101787369D01*
X47895309Y-101867543D01*
X47864416Y-101945901D01*
X47829863Y-102022335D01*
X47791760Y-102096735D01*
X47750214Y-102168995D01*
X47705334Y-102239005D01*
X47657230Y-102306657D01*
X47606007Y-102371842D01*
X47551777Y-102434453D01*
X47494646Y-102494380D01*
X47434723Y-102551516D01*
X47372116Y-102605751D01*
X47306935Y-102656978D01*
X47239287Y-102705089D01*
X47169280Y-102749974D01*
X47097024Y-102791525D01*
X47022626Y-102829634D01*
X46946195Y-102864192D01*
X46867840Y-102895092D01*
X46787668Y-102922224D01*
X46705788Y-102945481D01*
X46622309Y-102964753D01*
X46537339Y-102979933D01*
X46450985Y-102990911D01*
X46363358Y-102997581D01*
X46274565Y-102999832D01*
X38325075Y-103000465D01*
X38236546Y-102998232D01*
X38149179Y-102991594D01*
X38063082Y-102980658D01*
X37978364Y-102965534D01*
X37895132Y-102946328D01*
X37813494Y-102923149D01*
X37733559Y-102896105D01*
X37655435Y-102865305D01*
X37579230Y-102830856D01*
X37505051Y-102792866D01*
X37433008Y-102751444D01*
X37363208Y-102706698D01*
X37295759Y-102658736D01*
X37230770Y-102607665D01*
X37168348Y-102553595D01*
X37108602Y-102496633D01*
X37051640Y-102436887D01*
X36997569Y-102374465D01*
X36946499Y-102309476D01*
X36898536Y-102242027D01*
X36853790Y-102172227D01*
X36812368Y-102100184D01*
X36774378Y-102026005D01*
X36739929Y-101949800D01*
X36709128Y-101871676D01*
X36682085Y-101791741D01*
X36658906Y-101710103D01*
X36639700Y-101626871D01*
X36624574Y-101542153D01*
X36613639Y-101456056D01*
X36607000Y-101368688D01*
X36604767Y-101280159D01*
X36604767Y-100945808D01*
X36598999Y-100717071D01*
X36581850Y-100491335D01*
X36553598Y-100268881D01*
X36514523Y-100049987D01*
X36464904Y-99834933D01*
X36405020Y-99623999D01*
X36335151Y-99417463D01*
X36255576Y-99215606D01*
X36166574Y-99018705D01*
X36068425Y-98827041D01*
X35961407Y-98640893D01*
X35845801Y-98460540D01*
X35721884Y-98286261D01*
X35589938Y-98118337D01*
X35450240Y-97957045D01*
X35303070Y-97802666D01*
X35148708Y-97655478D01*
X34987432Y-97515762D01*
X34819523Y-97383796D01*
X34645259Y-97259859D01*
X34464919Y-97144232D01*
X34278783Y-97037192D01*
X34087130Y-96939021D01*
X33890240Y-96849996D01*
X33688391Y-96770397D01*
X33481864Y-96700504D01*
X33270936Y-96640596D01*
X33055888Y-96590952D01*
X32836999Y-96551851D01*
X32614547Y-96523573D01*
X32388814Y-96506397D01*
X32160076Y-96500603D01*
X31720308Y-96500603D01*
X31631779Y-96498370D01*
X31544412Y-96491731D01*
X31458315Y-96480796D01*
X31373597Y-96465671D01*
X31290365Y-96446465D01*
X31208727Y-96423286D01*
X31128792Y-96396242D01*
X31050668Y-96365442D01*
X30974463Y-96330993D01*
X30900284Y-96293004D01*
X30828241Y-96251582D01*
X30758441Y-96206835D01*
X30690992Y-96158873D01*
X30626003Y-96107803D01*
X30563581Y-96053732D01*
X30503835Y-95996770D01*
X30446873Y-95937024D01*
X30392802Y-95874602D01*
X30341732Y-95809613D01*
X30293769Y-95742164D01*
X30249023Y-95672364D01*
X30207601Y-95600321D01*
X30169611Y-95526143D01*
X30135162Y-95449937D01*
X30104361Y-95371813D01*
X30077318Y-95291878D01*
X30054139Y-95210241D01*
X30034933Y-95127009D01*
X30019808Y-95042290D01*
X30008872Y-94956193D01*
X30002233Y-94868826D01*
X30000000Y-94780296D01*
X30000000Y-38220171D01*
X30002233Y-38131642D01*
X30008872Y-38044275D01*
X30019808Y-37958178D01*
X30034933Y-37873459D01*
X30054139Y-37790227D01*
X30077318Y-37708590D01*
X30104362Y-37628655D01*
X30135163Y-37550531D01*
X30169612Y-37474325D01*
X30207602Y-37400147D01*
X30249024Y-37328104D01*
X30293770Y-37258304D01*
X30341733Y-37190855D01*
X30392803Y-37125866D01*
X30446874Y-37063444D01*
X30503836Y-37003698D01*
X30563582Y-36946735D01*
X30626004Y-36892665D01*
X30690993Y-36841594D01*
X30758442Y-36793632D01*
X30828242Y-36748886D01*
X30900285Y-36707463D01*
X30974463Y-36669474D01*
X31050668Y-36635025D01*
X31128792Y-36604224D01*
X31208727Y-36577180D01*
X31290365Y-36554001D01*
X31373597Y-36534795D01*
X31458315Y-36519670D01*
X31544412Y-36508734D01*
X31631779Y-36502096D01*
X31720308Y-36499863D01*
X32160076Y-36499863D01*
X32388795Y-36494069D01*
X32614511Y-36476896D01*
X32836945Y-36448623D01*
X33055819Y-36409528D01*
X33270851Y-36359892D01*
X33481765Y-36299992D01*
X33688279Y-36230110D01*
X33890115Y-36150523D01*
X34086994Y-36061511D01*
X34278637Y-35963353D01*
X34464764Y-35856329D01*
X34645095Y-35740717D01*
X34819353Y-35616798D01*
X34987257Y-35484849D01*
X35148528Y-35345151D01*
X35302888Y-35197983D01*
X35450056Y-35043623D01*
X35589754Y-34882352D01*
X35721702Y-34714448D01*
X35845622Y-34540190D01*
X35961233Y-34359858D01*
X36068258Y-34173732D01*
X36166415Y-33982089D01*
X36255427Y-33785210D01*
X36335014Y-33583374D01*
X36404897Y-33376860D01*
X36464796Y-33165947D01*
X36514432Y-32950914D01*
X36553527Y-32732041D01*
X36581800Y-32509607D01*
X36598974Y-32283891D01*
X36604767Y-32055172D01*
X36604767Y-31720308D01*
X36607000Y-31631779D01*
X36613639Y-31544412D01*
X36624574Y-31458315D01*
X36639700Y-31373596D01*
X36658906Y-31290364D01*
X36682085Y-31208727D01*
X36709128Y-31128792D01*
X36739929Y-31050668D01*
X36774378Y-30974462D01*
X36812368Y-30900284D01*
X36853790Y-30828241D01*
X36898536Y-30758441D01*
X36946499Y-30690992D01*
X36997569Y-30626003D01*
X37051640Y-30563581D01*
X37108602Y-30503835D01*
X37168348Y-30446872D01*
X37230770Y-30392802D01*
X37295759Y-30341731D01*
X37363208Y-30293769D01*
X37433008Y-30249023D01*
X37505051Y-30207601D01*
X37579230Y-30169611D01*
X37655435Y-30135162D01*
X37733559Y-30104361D01*
X37813494Y-30077317D01*
X37895132Y-30054139D01*
X37978364Y-30034933D01*
X38063082Y-30019808D01*
X38149179Y-30008872D01*
X38236546Y-30002233D01*
X38325075Y-30000000D01*
X69884936Y-30000000D01*
X69973464Y-30002233D01*
M02*
